<svg width="2367" height="2266" viewBox="0 0 2367 2266" fill="none" xmlns="http://www.w3.org/2000/svg">
<g id="A-1-GRAPH">
<path id="Vector 259" d="M101 1578V1526" stroke="#FF5F5F" stroke-opacity="0.5"/>
<path id="Vector 260" d="M265 1578V1526" stroke="#FF5F5F" stroke-opacity="0.5"/>
<path id="Vector 262" d="M486 1578V1526" stroke="#FF5F5F" stroke-opacity="0.5"/>
<path id="Vector 263" d="M580 1578V1526" stroke="#FF5F5F" stroke-opacity="0.5"/>
<path id="Vector 264" d="M680 1477V1526" stroke="#FF5F5F" stroke-opacity="0.5"/>
<path id="Vector 265" d="M783 1578V1526" stroke="#FF5F5F" stroke-opacity="0.5"/>
<path id="Vector 266" d="M889 1578V1526" stroke="#FF5F5F" stroke-opacity="0.5"/>
<path id="Vector 267" d="M884 1477V1526" stroke="#FF5F5F" stroke-opacity="0.5"/>
<path id="Vector 268" d="M1080 1578V1526" stroke="#FF5F5F" stroke-opacity="0.5"/>
<path id="Vector 269" d="M1187 1477V1526" stroke="#FF5F5F" stroke-opacity="0.5"/>
<path id="Vector 270" d="M1267 1578V1526" stroke="#FF5F5F" stroke-opacity="0.5"/>
<path id="Vector 271" d="M1373 1477V1526" stroke="#FF5F5F" stroke-opacity="0.5"/>
<path id="Vector 272" d="M1440 1578V1526" stroke="#FF5F5F" stroke-opacity="0.5"/>
<path id="Vector 310" d="M1440 1578V1873" stroke="#FF5F5F" stroke-opacity="0.5"/>
<path id="Vector 312" d="M1440 1873L1566 1856" stroke="#FF5F5F" stroke-opacity="0.5"/>
<path id="Vector 273" d="M1567 1472L1574 1516" stroke="#FF5F5F" stroke-opacity="0.5"/>
<path id="Vector 292" d="M1809 1294L1841 1289" stroke="#FF5F5F" stroke-opacity="0.5"/>
<path id="Vector 293" d="M1875 1265L1838 1271" stroke="#FF5F5F" stroke-opacity="0.5"/>
<path id="Vector 294" d="M1848 1111L1817 1115" stroke="#FF5F5F" stroke-opacity="0.5"/>
<path id="Vector 295" d="M1712 986L1799 974" stroke="#FF5F5F" stroke-opacity="0.5"/>
<path id="Vector 296" d="M1799 977L1830 972" stroke="#FF5F5F" stroke-opacity="0.5"/>
<path id="Vector 297" d="M1813 851L1783 854" stroke="#FF5F5F" stroke-opacity="0.5"/>
<path id="Vector 298" d="M1654 509L1736 497" stroke="#FF5F5F" stroke-opacity="0.5"/>
<path id="Vector 300" d="M1668 624L1751 611" stroke="#FF5F5F" stroke-opacity="0.5"/>
<path id="Vector 299" d="M1736 497L1772 492" stroke="#FF5F5F" stroke-opacity="0.5"/>
<path id="Vector 275" d="M101 1526H1491" stroke="#FF5F5F" stroke-opacity="0.5"/>
<path id="Vector 291" d="M1865 1479L1736 497" stroke="#FF5F5F" stroke-opacity="0.5"/>
<path id="Vector 251" d="M275 1212H328" stroke="#FF5F5F" stroke-opacity="0.5"/>
<path id="Vector 252" d="M328 1147V1526" stroke="#FF5F5F" stroke-opacity="0.5"/>
<path id="Vector 253" d="M380 1322H328" stroke="#FF5F5F" stroke-opacity="0.5"/>
<path id="Vector 308" d="M520 1379H328" stroke="#FF5F5F" stroke-opacity="0.5"/>
<path id="Vector 254" d="M275 1322H328" stroke="#FF5F5F" stroke-opacity="0.5"/>
<path id="Vector 256" d="M380 1437H328" stroke="#FF5F5F" stroke-opacity="0.5"/>
<path id="Vector 257" d="M328 1437H275" stroke="#FF5F5F" stroke-opacity="0.5"/>
<path id="Vector 313" d="M1865 1479L1491 1526" stroke="#FF5F5F" stroke-opacity="0.5"/>
<path id="Vector 314" d="M1865 1479L1901 1474" stroke="#FF5F5F" stroke-opacity="0.5"/>
</g>
</svg>
