<svg width="2367" height="2266" viewBox="0 0 2367 2266" fill="none" xmlns="http://www.w3.org/2000/svg">
<g id="A-1-GRAPH">
<path id="Vector 259" d="M101 1578V1526" stroke="#FF5F5F" stroke-opacity="0.5"/>
<path id="Vector 260" d="M265 1578V1526" stroke="#FF5F5F" stroke-opacity="0.5"/>
<path id="Vector 261" d="M328 1437V1526" stroke="#FF5F5F" stroke-opacity="0.5"/>
<path id="Vector 262" d="M486 1578V1526" stroke="#FF5F5F" stroke-opacity="0.5"/>
<path id="Vector 263" d="M580 1578V1526" stroke="#FF5F5F" stroke-opacity="0.5"/>
<path id="Vector 264" d="M680 1477V1526" stroke="#FF5F5F" stroke-opacity="0.5"/>
<path id="Vector 265" d="M783 1578V1526" stroke="#FF5F5F" stroke-opacity="0.5"/>
<path id="Vector 266" d="M889 1578V1526" stroke="#FF5F5F" stroke-opacity="0.5"/>
<path id="Vector 267" d="M884 1477V1526" stroke="#FF5F5F" stroke-opacity="0.5"/>
<path id="Vector 268" d="M1080 1578V1526" stroke="#FF5F5F" stroke-opacity="0.5"/>
<path id="Vector 269" d="M1187 1477V1526" stroke="#FF5F5F" stroke-opacity="0.5"/>
<path id="Vector 270" d="M1267 1578V1526" stroke="#FF5F5F" stroke-opacity="0.5"/>
<path id="Vector 271" d="M1373 1477V1526" stroke="#FF5F5F" stroke-opacity="0.5"/>
<path id="Vector 272" d="M1440 1578V1526" stroke="#FF5F5F" stroke-opacity="0.5"/>
<path id="Vector 310" d="M1440 1578V1873" stroke="#FF5F5F" stroke-opacity="0.5"/>
<path id="Vector 312" d="M1440 1873L1566 1856" stroke="#FF5F5F" stroke-opacity="0.5"/>
<path id="Vector 273" d="M1567 1472L1578 1526" stroke="#FF5F5F" stroke-opacity="0.5"/>
<path id="Vector 274" d="M1901 1474L1865 1477" stroke="#FF5F5F" stroke-opacity="0.5"/>
<path id="Vector 292" d="M1809 1294L1841 1289" stroke="#FF5F5F" stroke-opacity="0.5"/>
<path id="Vector 293" d="M1875 1265L1838 1269" stroke="#FF5F5F" stroke-opacity="0.5"/>
<path id="Vector 294" d="M1848 1111L1817 1115" stroke="#FF5F5F" stroke-opacity="0.5"/>
<path id="Vector 295" d="M1712 986L1799 976" stroke="#FF5F5F" stroke-opacity="0.5"/>
<path id="Vector 296" d="M1799 976L1830 972" stroke="#FF5F5F" stroke-opacity="0.5"/>
<path id="Vector 297" d="M1813 851L1783 854" stroke="#FF5F5F" stroke-opacity="0.5"/>
<path id="Vector 298" d="M1654 509L1736 497" stroke="#FF5F5F" stroke-opacity="0.5"/>
<path id="Vector 301" d="M1736 497L1751 610" stroke="#FF5F5F" stroke-opacity="0.5"/>
<path id="Vector 302" d="M1751 610L1783 854" stroke="#FF5F5F" stroke-opacity="0.5"/>
<path id="Vector 303" d="M1783 854L1799 976" stroke="#FF5F5F" stroke-opacity="0.5"/>
<path id="Vector 304" d="M1799 976L1817 1115" stroke="#FF5F5F" stroke-opacity="0.5"/>
<path id="Vector 305" d="M1817 1115L1838 1269" stroke="#FF5F5F" stroke-opacity="0.5"/>
<path id="Vector 306" d="M1838 1269L1841 1289" stroke="#FF5F5F" stroke-opacity="0.5"/>
<path id="Vector 307" d="M1841 1289L1865 1477" stroke="#FF5F5F" stroke-opacity="0.5"/>
<path id="Vector 300" d="M1668 624L1751 610" stroke="#FF5F5F" stroke-opacity="0.5"/>
<path id="Vector 299" d="M1736 497L1772 492" stroke="#FF5F5F" stroke-opacity="0.5"/>
<path id="Vector 275" d="M101 1526H265" stroke="#FF5F5F" stroke-opacity="0.5"/>
<path id="Vector 276" d="M265 1526H328" stroke="#FF5F5F" stroke-opacity="0.5"/>
<path id="Vector 277" d="M328 1526H486" stroke="#FF5F5F" stroke-opacity="0.5"/>
<path id="Vector 278" d="M580 1526H486" stroke="#FF5F5F" stroke-opacity="0.5"/>
<path id="Vector 279" d="M680 1526H580" stroke="#FF5F5F" stroke-opacity="0.5"/>
<path id="Vector 280" d="M783 1526H680" stroke="#FF5F5F" stroke-opacity="0.5"/>
<path id="Vector 281" d="M884 1526H783" stroke="#FF5F5F" stroke-opacity="0.5"/>
<path id="Vector 282" d="M889 1526H884" stroke="#FF5F5F" stroke-opacity="0.5"/>
<path id="Vector 283" d="M1080 1526H889" stroke="#FF5F5F" stroke-opacity="0.5"/>
<path id="Vector 284" d="M1187 1526H1080" stroke="#FF5F5F" stroke-opacity="0.5"/>
<path id="Vector 285" d="M1267 1526H1187" stroke="#FF5F5F" stroke-opacity="0.5"/>
<path id="Vector 286" d="M1373 1526H1267" stroke="#FF5F5F" stroke-opacity="0.5"/>
<path id="Vector 287" d="M1440 1526H1373" stroke="#FF5F5F" stroke-opacity="0.5"/>
<path id="Vector 288" d="M1578 1526H1440" stroke="#FF5F5F" stroke-opacity="0.5"/>
<path id="Vector 289" d="M1578 1526L1867 1489" stroke="#FF5F5F" stroke-opacity="0.5"/>
<path id="Vector 291" d="M1867 1489L1865 1477" stroke="#FF5F5F" stroke-opacity="0.5"/>
<path id="Vector 251" d="M275 1212H328" stroke="#FF5F5F" stroke-opacity="0.5"/>
<path id="Vector 252" d="M328 1147V1212" stroke="#FF5F5F" stroke-opacity="0.5"/>
<path id="Vector 253" d="M380 1322H328" stroke="#FF5F5F" stroke-opacity="0.5"/>
<path id="Vector 308" d="M520 1379H328" stroke="#FF5F5F" stroke-opacity="0.5"/>
<path id="Vector 254" d="M275 1322H328" stroke="#FF5F5F" stroke-opacity="0.5"/>
<path id="Vector 255" d="M328 1322V1212" stroke="#FF5F5F" stroke-opacity="0.5"/>
<path id="Vector 256" d="M380 1437H328" stroke="#FF5F5F" stroke-opacity="0.5"/>
<path id="Vector 257" d="M328 1437H275" stroke="#FF5F5F" stroke-opacity="0.5"/>
<path id="Vector 258" d="M328 1379V1322" stroke="#FF5F5F" stroke-opacity="0.5"/>
<path id="Vector 309" d="M328 1379V1437" stroke="#FF5F5F" stroke-opacity="0.5"/>
</g>
</svg>
