<svg width="2232" height="2151" viewBox="0 0 2232 2151" fill="none" xmlns="http://www.w3.org/2000/svg">
<g id="A-2-GRAPH">
<path id="Vector 315" d="M92 1466V1416" stroke="#FF5F5F" stroke-opacity="0.5" stroke-width="2"/>
<path id="Vector 316" d="M198 1368V1416" stroke="#FF5F5F" stroke-opacity="0.5" stroke-width="2"/>
<path id="Vector 317" d="M360 1465V1416" stroke="#FF5F5F" stroke-opacity="0.5" stroke-width="2"/>
<path id="Vector 318" d="M433 1368V1416" stroke="#FF5F5F" stroke-opacity="0.5" stroke-width="2"/>
<path id="Vector 319" d="M740 1368V1416" stroke="#FF5F5F" stroke-opacity="0.5" stroke-width="2"/>
<path id="Vector 320" d="M935 1368V1416" stroke="#FF5F5F" stroke-opacity="0.5" stroke-width="2"/>
<path id="Vector 321" d="M1030 1368V1416" stroke="#FF5F5F" stroke-opacity="0.5" stroke-width="2"/>
<path id="Vector 322" d="M1030 1465V1416" stroke="#FF5F5F" stroke-opacity="0.5" stroke-width="2"/>
<path id="Vector 323" d="M1115 1465V1416" stroke="#FF5F5F" stroke-opacity="0.5" stroke-width="2"/>
<path id="Vector 324" d="M1115 1416V1368" stroke="#FF5F5F" stroke-opacity="0.5" stroke-width="2"/>
<path id="Vector 325" d="M1206 1368V1416" stroke="#FF5F5F" stroke-opacity="0.5" stroke-width="2"/>
<path id="Vector 326" d="M1215 1465V1416" stroke="#FF5F5F" stroke-opacity="0.5" stroke-width="2"/>
<path id="Vector 327" d="M1360 1463V1416" stroke="#FF5F5F" stroke-opacity="0.5" stroke-width="2"/>
<path id="Vector 328" d="M1360 1463V1531" stroke="#FF5F5F" stroke-opacity="0.5" stroke-width="2"/>
<path id="Vector 329" d="M1451 1520L1360 1531" stroke="#FF5F5F" stroke-opacity="0.5" stroke-width="2"/>
<path id="Vector 345" d="M1400 1368V1416" stroke="#FF5F5F" stroke-opacity="0.5" stroke-width="2"/>
<path id="Vector 330" d="M1442 1416H92" stroke="#FF5F5F" stroke-opacity="0.5" stroke-width="2"/>
<path id="Vector 331" d="M1563 472L1619 464" stroke="#FF5F5F" stroke-opacity="0.5" stroke-width="2"/>
<path id="Vector 339" d="M1578 582L1635 574" stroke="#FF5F5F" stroke-opacity="0.5" stroke-width="2"/>
<path id="Vector 340" d="M1610 811L1669 802" stroke="#FF5F5F" stroke-opacity="0.5" stroke-width="2"/>
<path id="Vector 333" d="M1619 464L1739 1283" stroke="#FF5F5F" stroke-opacity="0.5" stroke-width="2"/>
<path id="Vector 334" d="M1759 1040L1704 1047" stroke="#FF5F5F" stroke-opacity="0.5" stroke-width="2"/>
<path id="Vector 341" d="M1790 1279L1739 1283" stroke="#FF5F5F" stroke-opacity="0.5" stroke-width="2"/>
<path id="Vector 342" d="M1685 1198H1727" stroke="#FF5F5F" stroke-opacity="0.5" stroke-width="2"/>
<path id="Vector 343" d="M1739 1283L1749 1396" stroke="#FF5F5F" stroke-opacity="0.5" stroke-width="2"/>
<path id="Vector 344" d="M1442 1416L1749 1396" stroke="#FF5F5F" stroke-opacity="0.5" stroke-width="2"/>
<path id="Vector 336" d="M1725 799L1669 806" stroke="#FF5F5F" stroke-opacity="0.5" stroke-width="2"/>
<path id="Vector 337" d="M1709 685L1653 692" stroke="#FF5F5F" stroke-opacity="0.5" stroke-width="2"/>
<path id="Vector 338" d="M1693 573L1636 580" stroke="#FF5F5F" stroke-opacity="0.5" stroke-width="2"/>
<path id="Vector 335" d="M1703 1038L1644 1046" stroke="#FF5F5F" stroke-opacity="0.5" stroke-width="2"/>
<path id="Vector 332" d="M1677 457L1619 464" stroke="#FF5F5F" stroke-opacity="0.5" stroke-width="2"/>
</g>
</svg>
