<svg width="2232" height="2151" viewBox="0 0 2232 2151" fill="none" xmlns="http://www.w3.org/2000/svg">
<g id="A-2">
<path id="Vneshniy kontur" d="M5 5V1725H175V1695H1275V1795H1485L1525 2145L2055 2075L2025 1725L2225 1695L2155 1395L1975 1435L1925 835L1975 825L1925 385L1345 435L1445 1155H595V5H5Z" fill="#1E1E1E"/>
<g id="&#208;&#159;&#209;&#128;&#208;&#190;&#209;&#129;&#209;&#130;&#209;&#128;&#208;&#176;&#208;&#189;&#209;&#129;&#209;&#130;&#208;&#178;&#208;&#176;">
<rect id="a-2-stair-1" x="5" y="1465" width="170" height="260" fill="#23242B"/>
<rect id="a-204" x="5" y="1155" width="290" height="213" fill="#3B3C41"/>
<rect id="a-203" x="175" y="1465" width="710" height="230" fill="#3B3C41"/>
<path id="a-205" d="M55 1055L545 1055V1155H595V1369H295V1155H55V1055Z" fill="#3B3C41"/>
<rect id="a-206" x="595" y="1155" width="290" height="213" fill="#3B3C41"/>
<rect id="a-207" x="885" y="1155" width="100" height="213" fill="#3B3C41"/>
<rect id="a-208" x="985" y="1155" width="90" height="213" fill="#3B3C41"/>
<rect id="a-209" x="1075" y="1155" width="80" height="213" fill="#3B3C41"/>
<rect id="a-210" x="1155" y="1155" width="190" height="213" fill="#3B3C41"/>
<path id="a-200" d="M1445 1465L1975 1435L2025 1725L2055 2075L1525 2145L1445 1465Z" fill="#3B3C41"/>
<path id="a-224" d="M1360 545L1570 525L1585 635L1375 655L1360 545Z" fill="#3B3C41"/>
<path id="a-216" d="M1375 655L1585 635L1630 960L1421 985L1375 655Z" fill="#3B3C41"/>
<path id="a-215" d="M1421 985L1630 960L1655 1129.5L1550 1145L1445 1155L1421 985Z" fill="#3B3C41"/>
<path id="a-211" d="M1735 855L1925 835L1945 1095L1774 1115L1735 855Z" fill="#3B3C41"/>
<path id="a-218" d="M1671 410L1925 385L1935.5 485L1685 515L1671 410Z" fill="#3B3C41"/>
<path id="a-219" d="M1685 515L1935.5 485L1948 595L1701 625L1685 515Z" fill="#3B3C41"/>
<path id="a-220" d="M1701 625L1948 595L1962 715L1718 745L1701 625Z" fill="#3B3C41"/>
<path id="a-221" d="M1718 745L1962 715L1975 825L1925 835L1735 855L1718 745Z" fill="#3B3C41"/>
<path id="a-212" d="M1774 1115L1945 1095L1975 1435L1805 1445L1774 1115Z" fill="#3B3C41"/>
<path id="a-2-wc-2" d="M1615 1135L1685 1125V1235H1615V1135Z" fill="#3B3C41"/>
<path id="a-214" d="M1345 1155H1445L1615 1135V1368H1345V1155Z" fill="#3B3C41"/>
<rect id="a-202" x="885" y="1465" width="190" height="230" fill="#3B3C41"/>
<rect id="a-201" x="1075" y="1465" width="80" height="230" fill="#3B3C41"/>
<rect id="a-2-wc-1" x="1155" y="1465" width="120" height="230" fill="#3B3C41"/>
<path id="a-2-stair-2" d="M1275 1465H1445L1485 1795H1275V1465Z" fill="#23242B"/>
<path id="a-2-stair-4" d="M1345 435L1555 415L1570 525L1360 545L1345 435Z" fill="#23242B"/>
<path id="a-2-stair-3" d="M1975 1435L2155 1395L2225 1695L2025 1725L1975 1435Z" fill="#23242B"/>
</g>
<g id="&#208;&#161;&#209;&#130;&#208;&#181;&#208;&#189;&#209;&#139;">
<path id="Vneshniy kontur_2" d="M5 5V1725H175V1695H1275V1795H1485L1525 2145L2055 2075L2025 1725L2225 1695L2155 1395L1975 1435L1925 835L1975 825L1925 385L1345 435L1445 1155H595V5H5Z" stroke="#D9D9D9" stroke-width="10"/>
<path id="Vector 154" d="M175 1695V1465" stroke="#D9D9D9" stroke-width="10"/>
<path id="Vector 166" d="M595 1368V1155" stroke="#D9D9D9" stroke-width="10"/>
<path id="Vector 173" d="M295 1368V1155" stroke="#D9D9D9" stroke-width="10"/>
<path id="Vector 169" d="M885 1368V1155" stroke="#D9D9D9" stroke-width="10"/>
<path id="Vector 170" d="M985 1368V1155" stroke="#D9D9D9" stroke-width="10"/>
<path id="Vector 171" d="M1075 1368V1155" stroke="#D9D9D9" stroke-width="10"/>
<path id="Vector 172" d="M1345 1368V1155" stroke="#D9D9D9" stroke-width="10"/>
<path id="Vector 160" d="M885 1693V1463" stroke="#D9D9D9" stroke-width="10"/>
<path id="Vector 162" d="M1075 1697V1467" stroke="#D9D9D9" stroke-width="10"/>
<path id="Vector 163" d="M1155 1693V1463" stroke="#D9D9D9" stroke-width="10"/>
<path id="Vector 193" d="M1155 1368V1155" stroke="#D9D9D9" stroke-width="10"/>
<path id="Vector 174" d="M545 1155V1055H55V1155" stroke="#D9D9D9" stroke-width="10"/>
<path id="Vector 183" d="M1965 715L1715 745" stroke="#D9D9D9" stroke-width="10"/>
<path id="Vector 184" d="M1945 595L1705 625" stroke="#D9D9D9" stroke-width="10"/>
<path id="Vector 185" d="M1935 485L1685 515" stroke="#D9D9D9" stroke-width="10"/>
<path id="Vector 182" d="M1735 855L1925 835" stroke="#D9D9D9" stroke-width="10"/>
<path id="Vector 186" d="M1375 655L1585 635" stroke="#D9D9D9" stroke-width="10"/>
<path id="Vector 187" d="M1365 545L1575 525" stroke="#D9D9D9" stroke-width="10"/>
<path id="Vector 190" d="M1615 1135V1368H1445" stroke="#D9D9D9" stroke-width="10"/>
<path id="Subtract" fill-rule="evenodd" clip-rule="evenodd" d="M1320 1470V1460H1275V1470H1320ZM1400 1470H1445V1460H1400V1470Z" fill="#D9D9D9"/>
<path id="Subtract_2" fill-rule="evenodd" clip-rule="evenodd" d="M812 1550L812 1540H785V1550H812ZM858 1550H885V1540H858V1550Z" fill="#D9D9D9"/>
<path id="Subtract_3" fill-rule="evenodd" clip-rule="evenodd" d="M239 1267V1257H5V1267H239ZM285 1267H295V1257H285V1267Z" fill="#D9D9D9"/>
<path id="Subtract_4" fill-rule="evenodd" clip-rule="evenodd" d="M322 1160V1150H5V1160H322ZM368 1160H595V1150H368V1160Z" fill="#D9D9D9"/>
<path id="Subtract_5" fill-rule="evenodd" clip-rule="evenodd" d="M1092 1470V1460H1053V1470H1092ZM1138 1470H1192V1460H1138V1470ZM337 1460V1470H132V1460H337ZM1007 1470H383V1460H1007V1470ZM1238 1470H1270V1695H1280V1465V1460H1275H1238V1470ZM52 1470V1460H5V1470H52Z" fill="#D9D9D9"/>
<path id="Subtract_6" fill-rule="evenodd" clip-rule="evenodd" d="M320 1501V1468H310V1501H320ZM320 1547H310V1698H320V1547Z" fill="#D9D9D9"/>
<path id="Subtract_7" fill-rule="evenodd" clip-rule="evenodd" d="M310 1128V1155H320V1128H310ZM310 1082H320V1055H310V1082Z" fill="#D9D9D9"/>
<path id="Subtract_8" fill-rule="evenodd" clip-rule="evenodd" d="M370 1128V1155H380V1128H370ZM370 1082H380V1055H370V1082Z" fill="#D9D9D9"/>
<path id="Subtract_9" fill-rule="evenodd" clip-rule="evenodd" d="M1424.42 980.034L1666.37 951.569L1667.57 961.496L1425.58 989.966L1424.42 980.034ZM1713.26 956.122L1712.05 946.195L1816.32 933.928L1817.41 943.868L1713.26 956.122ZM1863.1 938.493L1935.58 929.966L1934.42 920.034L1862 928.553L1863.1 938.493Z" fill="#D9D9D9"/>
<path id="Subtract_10" fill-rule="evenodd" clip-rule="evenodd" d="M700 1299V1155H690V1299H700ZM700 1345H690V1368H700V1345Z" fill="#D9D9D9"/>
<path id="Subtract_11" fill-rule="evenodd" clip-rule="evenodd" d="M790 1299V1155H780V1299H790ZM790 1345H780V1368H790V1345Z" fill="#D9D9D9"/>
<path id="Subtract_12" fill-rule="evenodd" clip-rule="evenodd" d="M170 1128V1155H180V1128H170ZM170 1082H180V1055H170V1082Z" fill="#D9D9D9"/>
<path id="Subtract_13" fill-rule="evenodd" clip-rule="evenodd" d="M410 1501V1468H400V1501H410ZM410 1547H400V1698H410V1547Z" fill="#D9D9D9"/>
<path id="Subtract_14" fill-rule="evenodd" clip-rule="evenodd" d="M500 1554V1465H490V1554H500ZM500 1600H490V1695H500V1600Z" fill="#D9D9D9"/>
<path id="Subtract_15" fill-rule="evenodd" clip-rule="evenodd" d="M600 1501V1465H590V1501H600ZM600 1547H590V1695H600V1547Z" fill="#D9D9D9"/>
<path id="Subtract_16" fill-rule="evenodd" clip-rule="evenodd" d="M790 1591V1463H780V1591H790ZM790 1637H780V1693H790V1637Z" fill="#D9D9D9"/>
<path id="Subtract_17" fill-rule="evenodd" clip-rule="evenodd" d="M990 1489V1465H980V1489H990ZM990 1535H980V1695H990V1535Z" fill="#D9D9D9"/>
<path id="Subtract_18" fill-rule="evenodd" clip-rule="evenodd" d="M1787.12 1302.57L1800.02 1444.45L1809.98 1443.55L1797.09 1301.77L1787.12 1302.57ZM1782.96 1256.76L1792.93 1255.95L1779.98 1113.55L1770.02 1114.45L1782.96 1256.76Z" fill="#D9D9D9"/>
<path id="Subtract_19" fill-rule="evenodd" clip-rule="evenodd" d="M1680 1221V1230H1615V1240H1685H1690V1235V1221H1680ZM1680 1175H1690V1125H1680V1175Z" fill="#D9D9D9"/>
<path id="Subtract_20" fill-rule="evenodd" clip-rule="evenodd" d="M1982.92 1451.5L1979.93 1434.15L1970.07 1435.85L1973.07 1453.22L1982.92 1451.5ZM1996.51 1530.34L1986.66 1532.06L2020.07 1725.85L2029.93 1724.15L1996.51 1530.34Z" fill="#D9D9D9"/>
<path id="Subtract_21" fill-rule="evenodd" clip-rule="evenodd" d="M1726.94 775.4L1717.3 706.959L1707.39 708.319L1717.03 776.76L1726.94 775.4ZM1701.52 594.928L1710.88 661.408L1700.97 662.768L1691.61 596.288L1701.52 594.928ZM1695.1 549.377L1685.19 478.974L1675.28 480.334L1685.2 550.738L1695.1 549.377ZM1674.95 406.303L1678.77 433.423L1668.86 434.783L1665.05 407.697L1674.95 406.303ZM1733.35 820.951L1723.45 822.311L1750.97 1017.77L1760.88 1016.41L1733.35 820.951ZM1767.3 1061.96L1757.39 1063.32L1765.05 1117.7L1774.95 1116.3L1767.3 1061.96Z" fill="#D9D9D9"/>
<path id="Subtract_22" fill-rule="evenodd" clip-rule="evenodd" d="M1618.63 832.913L1645.33 1022.48L1635.42 1023.84L1608.72 834.273L1618.63 832.913ZM1612.21 787.362L1586.38 603.947L1576.47 605.307L1602.31 788.722L1612.21 787.362ZM1573.18 510.212L1579.96 558.396L1570.06 559.757L1563.25 511.459L1573.18 510.212ZM1562.02 430.985L1559.95 416.303L1550.05 417.697L1552.1 432.232L1562.02 430.985ZM1641.84 1069.39L1651.74 1068.03L1659.95 1126.3L1650.05 1127.7L1641.84 1069.39Z" fill="#D9D9D9"/>
<path id="Subtract_23" fill-rule="evenodd" clip-rule="evenodd" d="M1753.23 1123.05L1945.6 1099.96L1944.4 1090.04L1752.05 1113.12L1753.23 1123.05ZM1707.55 1128.53L1706.38 1118.6L1444.4 1150.04L1445.6 1159.96L1707.55 1128.53Z" fill="#D9D9D9"/>
<path id="Subtract_24" fill-rule="evenodd" clip-rule="evenodd" d="M410 1373V1363H221V1373H410ZM456 1373H717V1363H456V1373ZM1377 1363V1373H1229V1363H1377ZM1445 1373H1423V1363H1445V1373ZM1183 1373V1363H1138V1373H1183ZM1092 1363V1373H1053V1363H1092ZM1007 1373V1363H958V1373H1007ZM912 1363V1373H763V1363H912ZM175 1363V1373H5V1363H175Z" fill="#D9D9D9"/>
<path id="Subtract_25" fill-rule="evenodd" clip-rule="evenodd" d="M1975.28 1439.99L1450.61 1469.69L1451.77 1479.27L1441.84 1480.51L1440.04 1465.6L1439.39 1460.31L1444.72 1460.01L1974.72 1430.01L1975.28 1439.99ZM1451.47 1559.93L1480.04 1795.6L1489.96 1794.4L1461.39 1558.68L1451.47 1559.93Z" fill="#D9D9D9"/>
</g>
<g id="&#208;&#159;&#208;&#190;&#208;&#180;&#208;&#191;&#208;&#184;&#209;&#129;&#208;&#184;">
<text id="text 1" fill="#D9D9D9" xml:space="preserve" style="white-space: pre" font-family="GothamSSm" font-size="24" font-weight="bold" letter-spacing="0em"><tspan x="333.195" y="1589.62">&#x410; 203</tspan></text>
<text id="text 4" fill="#D9D9D9" xml:space="preserve" style="white-space: pre" font-family="GothamSSm" font-size="24" font-weight="bold" letter-spacing="0em"><tspan x="119.352" y="1321.62">&#x410; 204</tspan></text>
<text id="text 5" fill="#D9D9D9" xml:space="preserve" style="white-space: pre" font-family="GothamSSm" font-size="24" font-weight="bold" letter-spacing="0em"><tspan x="418.02" y="1270.62">&#x410; 205</tspan></text>
<text id="text 6" fill="#D9D9D9" xml:space="preserve" style="white-space: pre" font-family="GothamSSm" font-size="24" font-weight="bold" letter-spacing="0em"><tspan x="712.027" y="1270.62">&#x410; 206</tspan></text>
<text id="text 7" fill="#D9D9D9" xml:space="preserve" style="white-space: pre" font-family="GothamSSm" font-size="24" font-weight="bold" letter-spacing="0em"><tspan x="908.301" y="1270.62">&#x410; 207</tspan></text>
<text id="text 8" fill="#D9D9D9" xml:space="preserve" style="white-space: pre" font-family="GothamSSm" font-size="24" font-weight="bold" letter-spacing="0em"><tspan x="1002.12" y="1270.62">&#x410; 208</tspan></text>
<text id="text 9" fill="#D9D9D9" xml:space="preserve" style="white-space: pre" font-family="GothamSSm" font-size="24" font-weight="bold" letter-spacing="0em"><tspan x="1087.05" y="1270.62">&#x410; 209</tspan></text>
<text id="text 10" fill="#D9D9D9" xml:space="preserve" style="white-space: pre" font-family="GothamSSm" font-size="24" font-weight="bold" letter-spacing="0em"><tspan x="1224.27" y="1270.62">&#x410; 210</tspan></text>
<text id="text 11" fill="#D9D9D9" xml:space="preserve" style="white-space: pre" font-family="GothamSSm" font-size="24" font-weight="bold" letter-spacing="0em"><tspan x="1455.04" y="1260.62">&#x410; 214</tspan></text>
<text id="text 12" fill="#D9D9D9" xml:space="preserve" style="white-space: pre" font-family="GothamSSm" font-size="24" font-weight="bold" letter-spacing="0em"><tspan x="1722.08" y="1799.62">&#x410; 200</tspan></text>
<text id="text 13" fill="#D9D9D9" xml:space="preserve" style="white-space: pre" font-family="GothamSSm" font-size="24" font-weight="bold" letter-spacing="0em"><tspan x="1849.16" y="1279.62">&#x410; 212</tspan></text>
<text id="text 14" fill="#D9D9D9" xml:space="preserve" style="white-space: pre" font-family="GothamSSm" font-size="24" font-weight="bold" letter-spacing="0em"><tspan x="1823.45" y="1029.62">&#x410; 211</tspan></text>
<text id="text 16" fill="#D9D9D9" xml:space="preserve" style="white-space: pre" font-family="GothamSSm" font-size="24" font-weight="bold" letter-spacing="0em"><tspan x="1822.16" y="794.62">&#x410; 221</tspan></text>
<text id="text 18" fill="#D9D9D9" xml:space="preserve" style="white-space: pre" font-family="GothamSSm" font-size="24" font-weight="bold" letter-spacing="0em"><tspan x="1804.47" y="679.62">&#x410; 220</tspan></text>
<text id="text 19" fill="#D9D9D9" xml:space="preserve" style="white-space: pre" font-family="GothamSSm" font-size="24" font-weight="bold" letter-spacing="0em"><tspan x="1791.23" y="564.62">&#x410; 219</tspan></text>
<text id="text 20" fill="#D9D9D9" xml:space="preserve" style="white-space: pre" font-family="GothamSSm" font-size="24" font-weight="bold" letter-spacing="0em"><tspan x="1778.3" y="459.62">&#x410; 218</tspan></text>
<text id="text 21" fill="#D9D9D9" xml:space="preserve" style="white-space: pre" font-family="GothamSSm" font-size="24" font-weight="bold" letter-spacing="0em"><tspan x="1445.39" y="599.62">&#x410; 224</tspan></text>
<text id="text 17" fill="#D9D9D9" xml:space="preserve" style="white-space: pre" font-family="GothamSSm" font-size="24" font-weight="bold" letter-spacing="0em"><tspan x="1477.21" y="819.62">&#x410; 216</tspan></text>
<text id="text 15" fill="#D9D9D9" xml:space="preserve" style="white-space: pre" font-family="GothamSSm" font-size="24" font-weight="bold" letter-spacing="0em"><tspan x="1513.2" y="1066.62">&#x410; 215</tspan></text>
<text id="text 2" fill="#D9D9D9" xml:space="preserve" style="white-space: pre" font-family="GothamSSm" font-size="24" font-weight="bold" letter-spacing="0em"><tspan x="1003.09" y="1589.62">&#x410; 202</tspan></text>
<text id="text 3" fill="#D9D9D9" xml:space="preserve" style="white-space: pre" font-family="GothamSSm" font-size="24" font-weight="bold" letter-spacing="0em"><tspan x="1089.36" y="1589.62">&#x410; 201</tspan></text>
</g>
<g id="&#208;&#155;&#208;&#181;&#209;&#129;&#209;&#130;&#208;&#189;&#208;&#184;&#209;&#134;&#208;&#176;/&#208;&#147;&#208;&#190;&#209;&#128;&#208;&#184;&#208;&#183;&#208;&#190;&#208;&#189;&#209;&#130;&#208;&#176;&#208;&#187;&#209;&#140;&#208;&#189;&#208;&#176;&#209;&#143;">
<g id="&#208;&#155;&#208;&#181;&#209;&#129;&#209;&#130;&#208;&#189;&#208;&#184;&#209;&#134;&#208;&#176;/&#208;&#146;&#208;&#178;&#208;&#181;&#209;&#128;&#209;&#133;">
<path id="Vector 54" d="M79 1593H69V1603H59V1613H44" stroke="#D9D9D9" stroke-width="2"/>
<g id="Group 6">
<path id="Vector 55" d="M77 1577L53 1601" stroke="url(#paint0_linear_61_200)" stroke-width="2"/>
<path id="Vector 56" d="M79 1575L68 1580H73L74 1581V1586L79 1575Z" fill="#D9D9D9"/>
</g>
</g>
<g id="&#208;&#155;&#208;&#181;&#209;&#129;&#209;&#130;&#208;&#189;&#208;&#184;&#209;&#134;&#208;&#176;/&#208;&#146;&#208;&#189;&#208;&#184;&#208;&#183;">
<path id="Vector 54_2" d="M101 1613H111V1603H121V1593H136" stroke="#D9D9D9" stroke-width="2"/>
<g id="Group 5">
<path id="Vector 55_2" d="M103 1599L127 1575" stroke="url(#paint1_linear_61_200)" stroke-width="2"/>
<path id="Vector 56_2" d="M101 1601L112 1596H107L106 1595V1590L101 1601Z" fill="#D9D9D9"/>
</g>
</g>
<path id="Vector 57" d="M90 1552V1639" stroke="#D9D9D9" stroke-width="2"/>
</g>
<g id="&#208;&#155;&#208;&#181;&#209;&#129;&#209;&#130;&#208;&#189;&#208;&#184;&#209;&#134;&#208;&#176;/&#208;&#147;&#208;&#190;&#209;&#128;&#208;&#184;&#208;&#183;&#208;&#190;&#208;&#189;&#209;&#130;&#208;&#176;&#208;&#187;&#209;&#140;&#208;&#189;&#208;&#176;&#209;&#143;_2">
<g id="&#208;&#155;&#208;&#181;&#209;&#129;&#209;&#130;&#208;&#189;&#208;&#184;&#209;&#134;&#208;&#176;/&#208;&#146;&#208;&#178;&#208;&#181;&#209;&#128;&#209;&#133;_2">
<path id="Vector 54_3" d="M1369 1628H1359V1638H1349V1648H1334" stroke="#D9D9D9" stroke-width="2"/>
<g id="Group 6_2">
<path id="Vector 55_3" d="M1367 1612L1343 1636" stroke="url(#paint2_linear_61_200)" stroke-width="2"/>
<path id="Vector 56_3" d="M1369 1610L1358 1615H1363L1364 1616V1621L1369 1610Z" fill="#D9D9D9"/>
</g>
</g>
<g id="&#208;&#155;&#208;&#181;&#209;&#129;&#209;&#130;&#208;&#189;&#208;&#184;&#209;&#134;&#208;&#176;/&#208;&#146;&#208;&#189;&#208;&#184;&#208;&#183;_2">
<path id="Vector 54_4" d="M1391 1648H1401V1638H1411V1628H1426" stroke="#D9D9D9" stroke-width="2"/>
<g id="Group 5_2">
<path id="Vector 55_4" d="M1393 1634L1417 1610" stroke="url(#paint3_linear_61_200)" stroke-width="2"/>
<path id="Vector 56_4" d="M1391 1636L1402 1631H1397L1396 1630V1625L1391 1636Z" fill="#D9D9D9"/>
</g>
</g>
<path id="Vector 57_2" d="M1380 1587V1674" stroke="#D9D9D9" stroke-width="2"/>
</g>
<g id="&#208;&#155;&#208;&#181;&#209;&#129;&#209;&#130;&#208;&#189;&#208;&#184;&#209;&#134;&#208;&#176;/&#208;&#147;&#208;&#190;&#209;&#128;&#208;&#184;&#208;&#183;&#208;&#190;&#208;&#189;&#209;&#130;&#208;&#176;&#208;&#187;&#209;&#140;&#208;&#189;&#208;&#176;&#209;&#143;_3">
<g id="&#208;&#155;&#208;&#181;&#209;&#129;&#209;&#130;&#208;&#189;&#208;&#184;&#209;&#134;&#208;&#176;/&#208;&#146;&#208;&#178;&#208;&#181;&#209;&#128;&#209;&#133;_3">
<path id="Vector 54_5" d="M2089 1558H2079V1568H2069V1578H2054" stroke="#D9D9D9" stroke-width="2"/>
<g id="Group 6_3">
<path id="Vector 55_5" d="M2087 1542L2063 1566" stroke="url(#paint4_linear_61_200)" stroke-width="2"/>
<path id="Vector 56_5" d="M2089 1540L2078 1545H2083L2084 1546V1551L2089 1540Z" fill="#D9D9D9"/>
</g>
</g>
<g id="&#208;&#155;&#208;&#181;&#209;&#129;&#209;&#130;&#208;&#189;&#208;&#184;&#209;&#134;&#208;&#176;/&#208;&#146;&#208;&#189;&#208;&#184;&#208;&#183;_3">
<path id="Vector 54_6" d="M2111 1578H2121V1568H2131V1558H2146" stroke="#D9D9D9" stroke-width="2"/>
<g id="Group 5_3">
<path id="Vector 55_6" d="M2113 1564L2137 1540" stroke="url(#paint5_linear_61_200)" stroke-width="2"/>
<path id="Vector 56_6" d="M2111 1566L2122 1561H2117L2116 1560V1555L2111 1566Z" fill="#D9D9D9"/>
</g>
</g>
<path id="Vector 57_3" d="M2100 1517V1604" stroke="#D9D9D9" stroke-width="2"/>
</g>
<g id="&#208;&#155;&#208;&#181;&#209;&#129;&#209;&#130;&#208;&#189;&#208;&#184;&#209;&#134;&#208;&#176;/&#208;&#146;&#208;&#181;&#209;&#128;&#209;&#130;&#208;&#184;&#208;&#186;&#208;&#176;&#208;&#187;&#209;&#140;&#208;&#189;&#208;&#176;&#209;&#143;">
<g id="&#208;&#155;&#208;&#181;&#209;&#129;&#209;&#130;&#208;&#189;&#208;&#184;&#209;&#134;&#208;&#176;/&#208;&#146;&#208;&#178;&#208;&#181;&#209;&#128;&#209;&#133;_4">
<path id="Vector 54_7" d="M1475 452H1465V462H1455V472H1440" stroke="#D9D9D9" stroke-width="2"/>
<g id="Group 6_4">
<path id="Vector 55_7" d="M1473 436L1449 460" stroke="url(#paint6_linear_61_200)" stroke-width="2"/>
<path id="Vector 56_7" d="M1475 434L1464 439H1469L1470 440V445L1475 434Z" fill="#D9D9D9"/>
</g>
</g>
<g id="&#208;&#155;&#208;&#181;&#209;&#129;&#209;&#130;&#208;&#189;&#208;&#184;&#209;&#134;&#208;&#176;/&#208;&#146;&#208;&#189;&#208;&#184;&#208;&#183;_4">
<path id="Vector 54_8" d="M1440 526H1450V516H1460V506H1475" stroke="#D9D9D9" stroke-width="2"/>
<g id="Group 5_4">
<path id="Vector 55_8" d="M1442 512L1466 488" stroke="url(#paint7_linear_61_200)" stroke-width="2"/>
<path id="Vector 56_8" d="M1440 514L1451 509H1446L1445 508V503L1440 514Z" fill="#D9D9D9"/>
</g>
</g>
<path id="Vector 57_4" d="M1501 480L1414 480" stroke="#D9D9D9" stroke-width="2"/>
</g>
<g id="&#208;&#146;&#209;&#133;&#208;&#190;&#208;&#180;&#209;&#139;">
<circle id="1" cx="92" cy="1466" r="10" fill="#9CBBFF"/>
<circle id="7" cx="198" cy="1368" r="10" fill="#9CBBFF"/>
<circle id="8" cx="433" cy="1368" r="10" fill="#9CBBFF"/>
<circle id="9" cx="740" cy="1368" r="10" fill="#9CBBFF"/>
<circle id="10" cx="935" cy="1368" r="10" fill="#9CBBFF"/>
<circle id="11" cx="1030" cy="1368" r="10" fill="#9CBBFF"/>
<circle id="12" cx="1115" cy="1368" r="10" fill="#9CBBFF"/>
<circle id="13" cx="1206" cy="1368" r="10" fill="#9CBBFF"/>
<circle id="14" cx="1400" cy="1368" r="10" fill="#9CBBFF"/>
<circle id="15" cx="1790" cy="1279" r="10" fill="#9CBBFF"/>
<circle id="26" cx="1985" cy="1492" r="10" fill="#9CBBFF"/>
<circle id="27" cx="1451" cy="1520" r="10" fill="#9CBBFF"/>
<circle id="16" cx="1685" cy="1198" r="10" fill="#9CBBFF"/>
<circle id="17" cx="1759" cy="1040" r="10" fill="#9CBBFF"/>
<circle id="18" cx="1644" cy="1046" r="10" fill="#9CBBFF"/>
<circle id="19" cx="1725" cy="799" r="10" fill="#9CBBFF"/>
<circle id="20" cx="1610" cy="811" r="10" fill="#9CBBFF"/>
<circle id="21" cx="1709" cy="685" r="10" fill="#9CBBFF"/>
<circle id="22" cx="1693" cy="573" r="10" fill="#9CBBFF"/>
<circle id="23" cx="1578" cy="582" r="10" fill="#9CBBFF"/>
<circle id="24" cx="1563" cy="472" r="10" fill="#9CBBFF"/>
<circle id="25" cx="1677" cy="457" r="10" fill="#9CBBFF"/>
<circle id="2" cx="360" cy="1465" r="10" fill="#9CBBFF"/>
<circle id="3" cx="1030" cy="1465" r="10" fill="#9CBBFF"/>
<circle id="4" cx="1115" cy="1465" r="10" fill="#9CBBFF"/>
<circle id="5" cx="1215" cy="1465" r="10" fill="#9CBBFF"/>
<circle id="6" cx="1360" cy="1463" r="10" fill="#9CBBFF"/>
</g>
</g>
<defs>
<linearGradient id="paint0_linear_61_200" x1="81" y1="1573" x2="43.5" y2="1610.5" gradientUnits="userSpaceOnUse">
<stop stop-color="#D9D9D9"/>
<stop offset="1" stop-color="#D9D9D9" stop-opacity="0"/>
</linearGradient>
<linearGradient id="paint1_linear_61_200" x1="99" y1="1603" x2="136.5" y2="1565.5" gradientUnits="userSpaceOnUse">
<stop stop-color="#D9D9D9"/>
<stop offset="1" stop-color="#D9D9D9" stop-opacity="0"/>
</linearGradient>
<linearGradient id="paint2_linear_61_200" x1="1371" y1="1608" x2="1333.5" y2="1645.5" gradientUnits="userSpaceOnUse">
<stop stop-color="#D9D9D9"/>
<stop offset="1" stop-color="#D9D9D9" stop-opacity="0"/>
</linearGradient>
<linearGradient id="paint3_linear_61_200" x1="1389" y1="1638" x2="1426.5" y2="1600.5" gradientUnits="userSpaceOnUse">
<stop stop-color="#D9D9D9"/>
<stop offset="1" stop-color="#D9D9D9" stop-opacity="0"/>
</linearGradient>
<linearGradient id="paint4_linear_61_200" x1="2091" y1="1538" x2="2053.5" y2="1575.5" gradientUnits="userSpaceOnUse">
<stop stop-color="#D9D9D9"/>
<stop offset="1" stop-color="#D9D9D9" stop-opacity="0"/>
</linearGradient>
<linearGradient id="paint5_linear_61_200" x1="2109" y1="1568" x2="2146.5" y2="1530.5" gradientUnits="userSpaceOnUse">
<stop stop-color="#D9D9D9"/>
<stop offset="1" stop-color="#D9D9D9" stop-opacity="0"/>
</linearGradient>
<linearGradient id="paint6_linear_61_200" x1="1477" y1="432" x2="1439.5" y2="469.5" gradientUnits="userSpaceOnUse">
<stop stop-color="#D9D9D9"/>
<stop offset="1" stop-color="#D9D9D9" stop-opacity="0"/>
</linearGradient>
<linearGradient id="paint7_linear_61_200" x1="1438" y1="516" x2="1475.5" y2="478.5" gradientUnits="userSpaceOnUse">
<stop stop-color="#D9D9D9"/>
<stop offset="1" stop-color="#D9D9D9" stop-opacity="0"/>
</linearGradient>
</defs>
</svg>
