<svg width="514" height="514" viewBox="0 0 514 514" fill="none" xmlns="http://www.w3.org/2000/svg">
<g id="plan-01" clip-path="url(#clip0_1_2)">
<rect width="514" height="514" fill="#232323"/>
<rect id="pr1309" x="356" y="147" width="151" height="360" fill="#3B3C41"/>
<rect id="pr1334" x="7" y="147" width="151" height="360" fill="#3B3C41"/>
<rect id="pr1315" x="7" y="7" width="500" height="150" fill="#3B3C41"/>
<rect id="Rectangle 1" x="212" y="252" width="90" height="210" fill="#424242" stroke="#D9D9D9" stroke-width="10"/>
<path id="Rectangle 5" d="M7 7H507V507H7V7Z" stroke="#D9D9D9" stroke-width="14"/>
<path id="02" d="M346.5 277H333V202H257V172.5" stroke="#9CBBFF" stroke-width="5" stroke-linecap="round" stroke-linejoin="round" stroke-dasharray="15 15"/>
<path id="03" d="M346.5 277H333V483.5H181V387" stroke="#9CBBFF" stroke-width="5" stroke-linecap="round" stroke-linejoin="round" stroke-dasharray="15 15"/>
<path id="01" d="M168 387H181.5V202H257.5V172.5" stroke="#9CBBFF" stroke-width="5" stroke-linecap="round" stroke-linejoin="round" stroke-dasharray="15 15"/>
<path id="Vector 1" d="M7 152L237 152" stroke="#D9D9D9" stroke-width="10"/>
<path id="Vector 2" d="M277 152H507" stroke="#D9D9D9" stroke-width="10"/>
<path id="Vector 5" d="M153 157L153 367" stroke="#D9D9D9" stroke-width="10"/>
<path id="Vector 5_2" d="M153 407L153 507" stroke="#D9D9D9" stroke-width="10"/>
<path id="Vector 6" d="M361 507L361 297" stroke="#D9D9D9" stroke-width="10"/>
<path id="Vector 7" d="M361 257L361 157" stroke="#D9D9D9" stroke-width="10"/>
<circle id="pr1315-v1" cx="257" cy="152" r="7.5" fill="#9CBBFF" stroke="#A5ADEF" stroke-width="5"/>
<circle id="pr1309-v1" cx="361" cy="277" r="10" fill="#9CBBFF"/>
<circle id="pr1334-v1" cx="153" cy="387" r="10" fill="#9CBBFF"/>
<path id="t-pr1309" d="M394.471 337V319.528H405.319V337H402.127V322.528H397.687V337H394.471ZM408.206 337V319.528H412.502C414.358 319.528 415.822 320.04 416.894 321.064C417.982 322.088 418.526 323.544 418.526 325.432V325.48C418.526 327.384 417.974 328.856 416.87 329.896C415.782 330.936 414.358 331.488 412.598 331.552H411.422V337H408.206ZM411.422 328.624H412.382C413.326 328.624 414.046 328.352 414.542 327.808C415.038 327.248 415.286 326.496 415.286 325.552V325.528C415.286 324.552 415.046 323.8 414.566 323.272C414.086 322.728 413.366 322.464 412.406 322.48H411.422V328.624ZM427.135 337V322.816L424.879 323.488L424.591 320.512L428.095 319.408H430.351V337H427.135ZM436.952 337.264C435.16 337.264 433.648 336.688 432.416 335.536L434 333.04C434.832 333.872 435.752 334.288 436.76 334.288C437.48 334.288 438.064 334.064 438.512 333.616C438.976 333.152 439.208 332.536 439.208 331.768V331.72C439.208 330.888 438.888 330.248 438.248 329.8C437.624 329.336 436.712 329.104 435.512 329.104H435.152L434.912 327.016L438.416 322.528H433.184V319.528H442.184V322.216L438.44 326.8C439.592 327.072 440.536 327.616 441.272 328.432C442.024 329.232 442.4 330.296 442.4 331.624V331.72C442.4 333.368 441.88 334.704 440.84 335.728C439.816 336.752 438.52 337.264 436.952 337.264ZM449.929 337.264C448.121 337.264 446.721 336.52 445.729 335.032C444.737 333.544 444.241 331.392 444.241 328.576V327.976C444.241 325.144 444.737 322.984 445.729 321.496C446.737 320.008 448.145 319.264 449.953 319.264C451.745 319.264 453.137 320.008 454.129 321.496C455.121 322.984 455.617 325.136 455.617 327.952V328.552C455.617 331.384 455.113 333.544 454.105 335.032C453.113 336.52 451.721 337.264 449.929 337.264ZM449.953 334.288C451.569 334.288 452.377 332.352 452.377 328.48V328.072C452.377 326.056 452.153 324.584 451.705 323.656C451.257 322.712 450.665 322.24 449.929 322.24C448.313 322.24 447.505 324.176 447.505 328.048V328.456C447.505 332.344 448.321 334.288 449.953 334.288ZM461.898 334.288C462.762 334.288 463.442 333.92 463.938 333.184C464.434 332.448 464.714 331.392 464.778 330.016C463.994 330.656 463.05 330.976 461.946 330.976C460.698 330.976 459.634 330.504 458.754 329.56C457.89 328.616 457.458 327.24 457.458 325.432V325.36C457.458 323.568 457.954 322.104 458.946 320.968C459.954 319.832 461.194 319.264 462.666 319.264C464.074 319.264 465.21 319.712 466.074 320.608C466.73 321.296 467.218 322.168 467.538 323.224C467.874 324.28 468.042 325.704 468.042 327.496V327.736C468.042 330.936 467.498 333.328 466.41 334.912C465.338 336.48 463.826 337.264 461.874 337.264C460.482 337.264 459.162 336.784 457.914 335.824L459.306 333.16C460.234 333.912 461.098 334.288 461.898 334.288ZM462.69 328.24C463.362 328.24 463.882 327.976 464.25 327.448C464.634 326.92 464.826 326.176 464.826 325.216V325.192C464.826 324.232 464.634 323.488 464.25 322.96C463.882 322.416 463.362 322.144 462.69 322.144C462.018 322.144 461.498 322.416 461.13 322.96C460.762 323.488 460.578 324.232 460.578 325.192V325.216C460.578 326.176 460.762 326.92 461.13 327.448C461.514 327.976 462.034 328.24 462.69 328.24Z" fill="#D9D9D9"/>
<path id="t-pr1334" d="M46.7916 337V319.528H57.6396V337H54.4476V322.528H50.0076V337H46.7916ZM60.5259 337V319.528H64.8219C66.6779 319.528 68.1419 320.04 69.2139 321.064C70.3019 322.088 70.8459 323.544 70.8459 325.432V325.48C70.8459 327.384 70.2939 328.856 69.1899 329.896C68.1019 330.936 66.6779 331.488 64.9179 331.552H63.7419V337H60.5259ZM63.7419 328.624H64.7019C65.6459 328.624 66.3659 328.352 66.8619 327.808C67.3579 327.248 67.6059 326.496 67.6059 325.552V325.528C67.6059 324.552 67.3659 323.8 66.8859 323.272C66.4059 322.728 65.6859 322.464 64.7259 322.48H63.7419V328.624ZM79.4548 337V322.816L77.1988 323.488L76.9108 320.512L80.4148 319.408H82.6708V337H79.4548ZM89.2721 337.264C87.4801 337.264 85.9681 336.688 84.7361 335.536L86.3201 333.04C87.1521 333.872 88.0721 334.288 89.0801 334.288C89.8001 334.288 90.3841 334.064 90.8321 333.616C91.2961 333.152 91.5281 332.536 91.5281 331.768V331.72C91.5281 330.888 91.2081 330.248 90.5681 329.8C89.9441 329.336 89.0321 329.104 87.8321 329.104H87.4721L87.2321 327.016L90.7361 322.528H85.5041V319.528H94.5041V322.216L90.7601 326.8C91.9121 327.072 92.8561 327.616 93.5921 328.432C94.3441 329.232 94.7201 330.296 94.7201 331.624V331.72C94.7201 333.368 94.2001 334.704 93.1601 335.728C92.1361 336.752 90.8401 337.264 89.2721 337.264ZM100.546 337.264C98.7536 337.264 97.2416 336.688 96.0096 335.536L97.5936 333.04C98.4256 333.872 99.3456 334.288 100.354 334.288C101.074 334.288 101.658 334.064 102.106 333.616C102.57 333.152 102.802 332.536 102.802 331.768V331.72C102.802 330.888 102.482 330.248 101.842 329.8C101.218 329.336 100.306 329.104 99.1056 329.104H98.7456L98.5056 327.016L102.01 322.528H96.7776V319.528H105.778V322.216L102.034 326.8C103.186 327.072 104.13 327.616 104.866 328.432C105.618 329.232 105.994 330.296 105.994 331.624V331.72C105.994 333.368 105.474 334.704 104.434 335.728C103.41 336.752 102.114 337.264 100.546 337.264ZM114.123 337V333.544H107.715L107.451 331.168L114.147 319.456H117.123V330.784H118.971V333.544H117.123V337H114.123ZM110.667 330.784H114.123V324.64L110.667 330.784Z" fill="#D9D9D9"/>
<path id="t-pr1315" d="M223.624 92V74.528H234.472V92H231.28V77.528H226.84V92H223.624ZM237.358 92V74.528H241.654C243.51 74.528 244.974 75.04 246.046 76.064C247.134 77.088 247.678 78.544 247.678 80.432V80.48C247.678 82.384 247.126 83.856 246.022 84.896C244.934 85.936 243.51 86.488 241.75 86.552H240.574V92H237.358ZM240.574 83.624H241.534C242.478 83.624 243.198 83.352 243.694 82.808C244.19 82.248 244.438 81.496 244.438 80.552V80.528C244.438 79.552 244.198 78.8 243.718 78.272C243.238 77.728 242.518 77.464 241.558 77.48H240.574V83.624ZM256.287 92V77.816L254.031 78.488L253.743 75.512L257.247 74.408H259.503V92H256.287ZM266.104 92.264C264.312 92.264 262.8 91.688 261.568 90.536L263.152 88.04C263.984 88.872 264.904 89.288 265.912 89.288C266.632 89.288 267.216 89.064 267.664 88.616C268.128 88.152 268.36 87.536 268.36 86.768V86.72C268.36 85.888 268.04 85.248 267.4 84.8C266.776 84.336 265.864 84.104 264.664 84.104H264.304L264.064 82.016L267.568 77.528H262.336V74.528H271.336V77.216L267.592 81.8C268.744 82.072 269.688 82.616 270.424 83.432C271.176 84.232 271.552 85.296 271.552 86.624V86.72C271.552 88.368 271.032 89.704 269.992 90.728C268.968 91.752 267.672 92.264 266.104 92.264ZM275.506 92V77.816L273.25 78.488L272.962 75.512L276.466 74.408H278.722V92H275.506ZM285.443 92.264C283.747 92.264 282.259 91.688 280.979 90.536L282.587 88.016C283.499 88.832 284.419 89.24 285.347 89.24C286.083 89.24 286.675 88.992 287.123 88.496C287.571 87.984 287.795 87.296 287.795 86.432V86.408C287.795 85.576 287.555 84.928 287.075 84.464C286.595 83.984 285.979 83.744 285.227 83.744C284.635 83.744 284.019 83.896 283.379 84.2L281.651 83.072L282.131 74.528H290.291V77.528H284.723L284.507 81.032C285.051 80.888 285.587 80.816 286.115 80.816C287.491 80.816 288.643 81.272 289.571 82.184C290.515 83.08 290.987 84.44 290.987 86.264V86.336C290.987 88.16 290.467 89.608 289.427 90.68C288.387 91.736 287.059 92.264 285.443 92.264Z" fill="#D9D9D9"/>
</g>
<defs>
<clipPath id="clip0_1_2">
<rect width="514" height="514" fill="white"/>
</clipPath>
</defs>
</svg>
