<svg width="2318" height="1119" viewBox="0 0 2318 1119" fill="none" xmlns="http://www.w3.org/2000/svg">
    <g id="PK-24-GRAPH">
        <g id="Group 8">
            <path id="Vector 58" d="M424 151H373" stroke="#FF5F5F" stroke-opacity="0.5"/>
            <path id="Vector 60" d="M424 287H373" stroke="#FF5F5F" stroke-opacity="0.5"/>
            <path id="Vector 61" d="M424 424H373" stroke="#FF5F5F" stroke-opacity="0.5"/>
            <path id="Vector 62" d="M321 384H373" stroke="#FF5F5F" stroke-opacity="0.5"/>
            <path id="Vector 63" d="M321 489H373" stroke="#FF5F5F" stroke-opacity="0.5"/>
            <path id="Vector 64" d="M424 530H373" stroke="#FF5F5F" stroke-opacity="0.5"/>
            <path id="Vector 65" d="M424 702H373" stroke="#FF5F5F" stroke-opacity="0.5"/>
            <path id="Vector 66" d="M321 849H373" stroke="#FF5F5F" stroke-opacity="0.5"/>
            <path id="Vector 67" d="M233 849H78" stroke="#FF5F5F" stroke-opacity="0.5"/>
            <path id="Vector 116" d="M233 849H321" stroke="#FF5F5F" stroke-opacity="0.5"/>
            <path id="Vector 68" d="M78 849V888" stroke="#FF5F5F" stroke-opacity="0.5"/>
            <path id="Vector 69" d="M233 849V888" stroke="#FF5F5F" stroke-opacity="0.5"/>
            <path id="Vector 70" d="M388 917V849" stroke="#FF5F5F" stroke-opacity="0.5"/>
            <path id="Vector 71" d="M388 849H373" stroke="#FF5F5F" stroke-opacity="0.5"/>
            <path id="Vector 74" d="M814 792V752" stroke="#FF5F5F" stroke-opacity="0.5"/>
            <path id="Vector 75" d="M915 677V752" stroke="#FF5F5F" stroke-opacity="0.5"/>
            <path id="Vector 76" d="M992 792V752" stroke="#FF5F5F" stroke-opacity="0.5"/>
            <path id="Vector 77" d="M1155 677V752" stroke="#FF5F5F" stroke-opacity="0.5"/>
            <path id="Vector 78" d="M1329 792V752" stroke="#FF5F5F" stroke-opacity="0.5"/>
            <path id="Vector 72" d="M388 849H725" stroke="#FF5F5F" stroke-opacity="0.5"/>
            <path id="Vector 73" d="M725 752V849" stroke="#FF5F5F" stroke-opacity="0.5"/>
            <path id="Vector 79" d="M1325 677V752" stroke="#FF5F5F" stroke-opacity="0.5"/>
            <path id="Vector 80" d="M725 752H814" stroke="#FF5F5F" stroke-opacity="0.5"/>
            <path id="Vector 81" d="M814 752H915" stroke="#FF5F5F" stroke-opacity="0.5"/>
            <path id="Vector 82" d="M915 752H992" stroke="#FF5F5F" stroke-opacity="0.5"/>
            <path id="Vector 83" d="M992 752H1155" stroke="#FF5F5F" stroke-opacity="0.5"/>
            <path id="Vector 84" d="M1155 752H1325" stroke="#FF5F5F" stroke-opacity="0.5"/>
            <path id="Vector 85" d="M1325 752H1329" stroke="#FF5F5F" stroke-opacity="0.5"/>
            <path id="Vector 86" d="M1329 752H1608" stroke="#FF5F5F" stroke-opacity="0.5"/>
            <path id="Vector 87" d="M1608 752V849" stroke="#FF5F5F" stroke-opacity="0.5"/>
            <path id="Vector 88" d="M1608 849H1947" stroke="#FF5F5F" stroke-opacity="0.5"/>
            <path id="Vector 89" d="M1947 849H1962" stroke="#FF5F5F" stroke-opacity="0.5"/>
            <path id="Vector 90" d="M1962 849V859" stroke="#FF5F5F" stroke-opacity="0.5"/>
            <path id="Vector 91" d="M1962 859H2006" stroke="#FF5F5F" stroke-opacity="0.5"/>
            <path id="Vector 92" d="M1962 859V912" stroke="#FF5F5F" stroke-opacity="0.5"/>
            <path id="Vector 93" d="M1886 704H1947" stroke="#FF5F5F" stroke-opacity="0.5"/>
            <path id="Vector 94" d="M1886 549H1947" stroke="#FF5F5F" stroke-opacity="0.5"/>
            <path id="Vector 95" d="M1886 427H1947" stroke="#FF5F5F" stroke-opacity="0.5"/>
            <path id="Vector 96" d="M1886 321H1947" stroke="#FF5F5F" stroke-opacity="0.5"/>
            <path id="Vector 97" d="M1886 206H1947" stroke="#FF5F5F" stroke-opacity="0.5"/>
            <path id="Vector 98" d="M1886 71H1947" stroke="#FF5F5F" stroke-opacity="0.5"/>
            <path id="Vector 99" d="M2006 310L1947 310" stroke="#FF5F5F" stroke-opacity="0.5"/>
            <path id="Vector 106" d="M1947 321V310" stroke="#FF5F5F" stroke-opacity="0.5"/>
            <path id="Vector 107" d="M1947 310V206" stroke="#FF5F5F" stroke-opacity="0.5"/>
            <path id="Vector 100" d="M2006 481H1947" stroke="#FF5F5F" stroke-opacity="0.5"/>
            <path id="Vector 104" d="M1947 481V427" stroke="#FF5F5F" stroke-opacity="0.5"/>
            <path id="Vector 105" d="M1947 427V321" stroke="#FF5F5F" stroke-opacity="0.5"/>
            <path id="Vector 101" d="M1947 849V704" stroke="#FF5F5F" stroke-opacity="0.5"/>
            <path id="Vector 102" d="M1947 704V549" stroke="#FF5F5F" stroke-opacity="0.5"/>
            <path id="Vector 103" d="M1947 549V481" stroke="#FF5F5F" stroke-opacity="0.5"/>
            <path id="Vector 108" d="M1947 206V71" stroke="#FF5F5F" stroke-opacity="0.5"/>
            <path id="Vector 109" d="M373 849V702" stroke="#FF5F5F" stroke-opacity="0.5"/>
            <path id="Vector 110" d="M373 702V530" stroke="#FF5F5F" stroke-opacity="0.5"/>
            <path id="Vector 111" d="M373 530V489" stroke="#FF5F5F" stroke-opacity="0.5"/>
            <path id="Vector 112" d="M373 489V424" stroke="#FF5F5F" stroke-opacity="0.5"/>
            <path id="Vector 113" d="M373 424V384" stroke="#FF5F5F" stroke-opacity="0.5"/>
            <path id="Vector 114" d="M373 384V287" stroke="#FF5F5F" stroke-opacity="0.5"/>
            <path id="Vector 115" d="M373 287V151" stroke="#FF5F5F" stroke-opacity="0.5"/>
        </g>
    </g>
</svg>
